PathFileType	4	(X/Y/Z)	C:\Documents and Settings\user\My Documents\MotionFiles\BioEngCompLab_Data\Delaware\Subject 2\Static1_smoothed.trc
DataRate	CameraRate	NumFrames	NumMarkers	Units	OrigDataRate	OrigDataStartFrame	OrigNumFrames
60.00	60.00	       4	49	mm	60.00	263	       300
Frame#	Time	R.ASIS			L.ASIS			V.Sacral			R.Thigh.Upper			R.Thigh.Front			R.Thigh.Rear			L.Thigh.Upper			L.Thigh.Front			L.Thigh.Rear			R.Knee.Lat			R.Knee.Med			L.Knee.Lat			L.Knee.Med			R.Shank.Upper			R.Shank.Front			R.Shank.Rear			L.Shank.Upper			L.Shank.Front			L.Shank.Rear			R.Ankle.Lat			R.Ankle.Med			L.Ankle.Lat			L.Ankle.Med			R.Heel			R.Midfoot.Sup			R.Midfoot.Lat			R.Toe.Tip			L.Heel			L.Midfoot.Sup			L.Midfoot.Lat			L.Toe.Tip			Sternum			R.Acromium			L.Acromium			R.Bicep			L.Bicep			R.Elbow			L.Elbow			R.Wrist.Med			R.Wrist.Lat			L.Wrist.Med			L.Wrist.Lat			R.Toe.Lat			R.Toe.Med			L.Toe.Lat			L.Toe.Med			R.Temple			L.Temple			Top.Head			
		X1	Y1	Z1	X2	Y2	Z2	X3	Y3	Z3	X4	Y4	Z4	X5	Y5	Z5	X6	Y6	Z6	X7	Y7	Z7	X8	Y8	Z8	X9	Y9	Z9	X10	Y10	Z10	X11	Y11	Z11	X12	Y12	Z12	X13	Y13	Z13	X14	Y14	Z14	X15	Y15	Z15	X16	Y16	Z16	X17	Y17	Z17	X18	Y18	Z18	X19	Y19	Z19	X20	Y20	Z20	X21	Y21	Z21	X22	Y22	Z22	X23	Y23	Z23	X24	Y24	Z24	X25	Y25	Z25	X26	Y26	Z26	X27	Y27	Z27	X28	Y28	Z28	X29	Y29	Z29	X30	Y30	Z30	X31	Y31	Z31	X32	Y32	Z32	X33	Y33	Z33	X34	Y34	Z34	X35	Y35	Z35	X36	Y36	Z36	X37	Y37	Z37	X38	Y38	Z38	X39	Y39	Z39	X40	Y40	Z40	X41	Y41	Z41	X42	Y42	Z42	X43	Y43	Z43	X44	Y44	Z44	X45	Y45	Z45	X46	Y46	Z46	X47	Y47	Z47	X48	Y48	Z48	X49	Y49	Z49	

263	4.367000	623.340700	1070.200320	165.005400	613.457400	1062.989870	-88.103570	419.752810	1064.946900	36.491710	545.479740	761.644650	218.375700	610.491150	697.273010	158.765270	511.984130	666.568540	213.515500	552.533080	764.089720	-146.750840	613.828550	690.635440	-75.805700	530.616820	634.924380	-134.568470	491.594820	543.674440	199.503220	498.815770	526.984620	72.405910	486.378170	548.090640	-118.981590	516.743590	524.926940	-3.052620	483.845550	461.559480	210.518950	531.756410	389.733830	166.879390	469.763310	378.843380	219.687130	461.665250	451.315920	-137.427490	526.022090	371.340270	-100.000780	438.758330	382.802550	-143.296770	431.800840	104.272800	205.523420	450.556950	114.769360	121.904880	420.792480	104.426050	-126.273960	445.159090	109.556020	-37.723160	366.702300	75.217040	161.632660	509.891510	71.911800	129.375350	479.515720	64.975040	228.364720	646.260800	64.222110	166.163420	352.449400	71.456570	-90.042540	495.061190	66.072170	-49.962280	478.631500	54.103280	-151.655650	634.649170	62.417540	-93.771920	611.753660	1458.149780	29.630020	474.697080	1569.157100	214.515720	458.859890	1568.259890	-127.061450	440.536590	1484.627080	389.809330	435.939940	1483.338870	-331.771240	433.990080	1462.184450	490.265080	445.272920	1471.191160	-424.489380	548.711300	1511.524290	738.709530	483.037410	1524.405400	737.692810	576.650210	1499.016850	-659.109800	504.472990	1507.657590	-671.866820	573.626400	49.125960	242.144620	579.429750	39.440890	129.554750	555.609560	36.939560	-170.764180	567.902340	41.725420	-59.796930	576.987300	1700.690190	107.476360	585.726070	1713.746340	-35.356770	603.547300	1805.794800	30.296470	
264	4.383000	623.334290	1070.191650	165.004700	613.457400	1062.989870	-88.103580	419.729490	1064.943600	36.498310	545.524050	761.674070	218.387310	610.467350	697.289180	158.796080	511.994600	666.570010	213.512990	552.543880	764.024050	-146.773700	614.130490	690.726440	-75.889240	530.624570	634.911680	-134.572190	491.607420	543.677610	199.463470	498.796050	526.992860	72.403620	486.385650	548.086610	-118.983910	516.735530	524.938720	-3.040200	483.852020	461.553040	210.532360	531.730220	389.721680	166.880660	469.758060	378.859500	219.707530	461.613860	451.296330	-137.436570	526.028690	371.339510	-100.004010	438.761470	382.800930	-143.295520	431.800930	104.272670	205.523330	450.380400	114.682790	121.873720	420.763580	104.430600	-126.267180	445.132110	109.612660	-37.941710	366.537570	75.223300	161.693890	509.883850	71.880070	129.374270	479.527440	64.900950	228.397900	646.217160	64.252460	166.164520	352.409940	71.452730	-89.961490	495.061250	66.072140	-49.962290	478.624540	54.118190	-151.647340	634.649170	62.417540	-93.771920	611.755310	1458.133060	29.623500	474.733090	1569.175050	214.413770	458.863950	1568.225460	-127.203430	440.465420	1484.711670	389.753850	436.032100	1483.318970	-331.798890	434.084260	1462.065190	490.242890	445.295040	1471.197880	-424.531250	548.691100	1511.693240	738.745360	483.002040	1524.507930	737.700930	576.679080	1498.941040	-659.153750	504.545470	1507.632930	-671.914550	573.626530	49.125870	242.144610	579.417540	39.381160	129.536130	555.621150	36.962550	-170.754870	567.376220	41.464250	-60.038050	577.348020	1700.965450	107.327370	585.713070	1713.726560	-35.385050	603.575990	1805.757320	30.313770	
265	4.400000	623.324830	1070.175050	165.002590	613.456480	1062.990840	-88.105780	419.735080	1064.917480	36.485120	545.581360	761.714170	218.437870	610.431210	697.294800	158.826890	511.980260	666.566160	213.500820	552.556270	763.973630	-146.799580	614.378540	690.810180	-75.955970	530.627870	634.898740	-134.576720	491.598420	543.668090	199.439900	498.758300	527.008670	72.399210	486.395840	548.078250	-118.988510	516.721620	524.958980	-3.018870	483.834080	461.544710	210.559370	531.745420	389.733670	166.873090	469.752750	378.875790	219.728150	461.593050	451.288360	-137.440250	526.022640	371.327300	-100.008920	438.747220	382.790250	-143.286850	431.800110	104.273990	205.524280	450.247040	114.617290	121.851250	420.754610	104.430220	-126.265310	445.124570	109.707600	-38.230940	366.361880	75.243700	161.775570	509.819670	71.823250	129.386890	479.534420	64.833760	228.429780	646.191160	64.263960	166.163600	352.385800	71.455190	-89.907410	495.061610	66.071910	-49.962300	478.621640	54.144990	-151.631910	634.649170	62.417540	-93.771920	611.750430	1458.134030	29.627160	474.793210	1569.208500	214.301570	458.854580	1568.190060	-127.312160	440.458980	1484.765010	389.630340	436.160030	1483.286010	-331.835660	434.199430	1462.001220	490.245640	445.317050	1471.204710	-424.573240	548.639890	1511.927490	738.762880	482.965420	1524.651860	737.715090	576.706730	1498.844120	-659.184450	504.620820	1507.601680	-671.960820	573.643800	49.116060	242.142970	579.390080	39.315030	129.514100	555.622310	36.964840	-170.753940	566.891480	41.205280	-60.385430	577.770510	1701.275510	107.050800	585.707890	1713.704100	-35.438150	603.631160	1805.717040	30.356860	
266	4.417000	623.298890	1070.159670	165.010380	613.455380	1062.992070	-88.108520	419.724910	1064.888670	36.477570	545.633910	761.751770	218.506470	610.375550	697.303960	158.853160	511.965090	666.571530	213.529970	552.559750	763.963930	-146.813160	614.525330	690.853760	-75.998400	530.615480	634.899050	-134.582520	491.579010	543.653750	199.424010	498.710480	527.028690	72.393630	486.389190	548.071900	-118.991400	516.705380	524.982420	-2.994150	483.804200	461.552030	210.587300	531.798770	389.763980	166.863130	469.750430	378.882780	219.736940	461.615450	451.296970	-137.436250	526.020570	371.317020	-100.014880	438.703980	382.783450	-143.266330	431.799290	104.275270	205.525190	450.168210	114.578740	121.836000	420.752080	104.428460	-126.264990	445.133820	109.835140	-38.579830	366.249820	75.279060	161.843550	509.747100	71.791660	129.404510	479.539700	64.819170	228.434510	646.198550	64.262420	166.165120	352.341800	71.438100	-89.861760	495.062560	66.071350	-49.962340	478.610840	54.180510	-151.611820	634.649170	62.417540	-93.771920	611.740480	1458.168820	29.637410	474.846530	1569.252560	214.200390	458.841490	1568.166630	-127.383700	440.496310	1484.787840	389.463440	436.310850	1483.250240	-331.875610	434.320100	1462.006350	490.280730	445.339050	1471.211430	-424.615260	548.570430	1512.231690	738.753050	482.931090	1524.840330	737.736020	576.734990	1498.738280	-659.192200	504.711030	1507.570430	-671.993160	573.675720	49.097870	242.139950	579.361150	39.273560	129.499100	555.622010	36.964160	-170.754210	566.364810	40.909920	-60.843100	578.135440	1701.537110	106.736510	585.727540	1713.682370	-35.512690	603.672490	1805.691280	30.406840	
